<svg width="26" height="24" viewBox="0 0 26 24" fill="none" xmlns="http://www.w3.org/2000/svg">
<path d="M24.4625 6.88361H21.138L19.3534 0.612377C19.093 0.0657786 18.4464 -0.15493 17.9084 0.119231L17.786 0.181305C17.2498 0.457191 17.0273 1.12277 17.2877 1.66936L18.5654 6.88188H7.09199L8.41624 1.67626C8.68178 1.13484 8.4628 0.465813 7.93172 0.184754L7.81102 0.12268C7.27649 -0.156655 6.62471 0.0571569 6.35917 0.600307L4.50901 6.88188H1.25011C0.560393 6.88188 0 7.40262 0 8.0406C0 8.0406 0.558669 10.1442 1.25011 10.1442H2.34675L3.12096 21.6573C3.12096 21.6573 3.21062 23.9144 6.76438 23.9144H18.8706C22.5692 23.9144 22.5175 21.6107 22.5175 21.6107L23.1434 10.146H24.4642C25.1539 10.146 25.7143 8.04233 25.7143 8.04233C25.7126 7.40434 25.1522 6.88361 24.4625 6.88361ZM5.12803 10.2408H3.29684V8.4096H5.12803V10.2408ZM8.63005 20.0882C8.63005 20.6917 8.19726 21.1797 7.66618 21.1797H7.62652C7.09027 21.1797 6.6592 20.6917 6.6592 20.0882V12.6238C6.6592 12.0203 7.09027 11.534 7.62652 11.534H7.66618C8.19726 11.534 8.63005 12.0203 8.63005 12.6238V20.0882ZM13.7995 19.752C13.7995 20.3279 13.3908 20.7952 12.8873 20.7952H12.8511C12.3459 20.7952 11.939 20.3279 11.939 19.752V12.6841C11.939 12.1082 12.3459 11.6426 12.8511 11.6426H12.8873C13.3908 11.6426 13.7995 12.1099 13.7995 12.6841V19.752ZM18.9171 19.9106C18.9171 20.4934 18.4947 20.9641 17.9757 20.9641H17.9378C17.417 20.9641 16.998 20.4934 16.998 19.9106V12.7445C16.998 12.1617 17.417 11.6909 17.9378 11.6909H17.9757C18.4947 11.6909 18.9171 12.1617 18.9171 12.7445V19.9106ZM22.3709 10.2942H20.4845V8.40788H22.3709V10.2942Z" fill="black"/>
</svg>
