<svg width="49" height="49" viewBox="0 0 49 49" fill="none" xmlns="http://www.w3.org/2000/svg">
<path d="M10.657 0.349976H2.27243C1.50438 0.349976 0.875 1.25074 0.875 2.34998V46.35C0.875 47.4492 1.50438 48.35 2.27243 48.35H10.657C11.425 48.35 12.0544 47.4492 12.0544 46.35V2.34998C12.0544 1.25074 11.425 0.349976 10.657 0.349976ZM9.25957 12.35H3.66986V8.34997H9.25957V12.35Z" fill="white"/>
<path d="M24.6311 0.349976H16.2466C15.4785 0.349976 14.8491 1.25074 14.8491 2.34998V46.35C14.8491 47.4492 15.4785 48.35 16.2466 48.35H24.6311C25.3992 48.35 26.0285 47.4492 26.0285 46.35V2.34998C26.0285 1.25074 25.3992 0.349976 24.6311 0.349976ZM23.2337 12.35H17.644V8.34997H23.2337V12.35Z" fill="white"/>
<path d="M34.2855 3.44926L26.797 8.83858C26.1143 9.32712 25.837 10.5485 26.1783 11.5256L38.7445 47.2355C39.0859 48.2126 39.9392 48.6096 40.622 48.121L48.1105 42.7164C48.7932 42.2279 49.0705 41.0065 48.7292 40.0294L36.1523 4.33476C35.811 3.34239 34.9682 2.94545 34.2855 3.44926Z" fill="white"/>
<path d="M41.4003 46.35C41.4003 47.4492 40.7709 48.35 40.0029 48.35C39.2348 48.35 38.6055 47.4492 38.6055 46.35C38.6055 45.2507 39.2348 44.35 40.0029 44.35C40.7709 44.35 41.4003 45.2507 41.4003 46.35Z" fill="white"/>
</svg>
