<svg width="44" height="39" viewBox="0 0 44 39" fill="none" xmlns="http://www.w3.org/2000/svg">
<path d="M42.3522 6.60659L42.8868 6.33409L42.3522 6.60659C42.9681 7.81479 43.3376 9.78675 43.3928 11.8929C43.4478 13.9911 43.1882 16.1169 42.6263 17.6119C41.1294 21.5946 38.3195 24.6757 31.5632 29.5128C29.3146 31.1226 26.9261 33.1391 25.058 34.8352C24.1232 35.6839 23.3143 36.4564 22.7146 37.0622C22.4151 37.3646 22.1641 37.6292 21.9743 37.8431C21.9466 37.8744 21.9189 37.9059 21.8917 37.9375C21.6523 37.561 21.2874 37.05 20.7118 36.4141C19.7265 35.3255 17.326 33.259 15.3704 31.803C9.61404 27.5175 8.85091 26.9121 6.53668 24.8115C4.42485 22.8944 2.94579 20.9959 1.99219 18.9481C1.03979 16.9028 0.596939 14.6772 0.600016 12.0849C0.60152 10.7914 0.647567 9.93412 0.775529 9.22103C0.901132 8.5211 1.10943 7.93986 1.46239 7.20747C2.66437 4.71349 4.42115 2.88361 6.65246 1.76625C7.49124 1.34628 8.06412 1.07143 8.76025 0.889642C9.45568 0.70804 10.3039 0.61254 11.677 0.605042C13.122 0.597164 13.9413 0.6777 14.5957 0.854584C15.2502 1.03147 15.7721 1.31163 16.643 1.78325C17.6156 2.31001 18.6236 3.15013 19.4426 4.07108C20.2703 5.00189 20.8493 5.95265 21.0375 6.67968L21.3123 7.74184L21.7325 9.36555L22.4376 7.84378L23.1154 6.3809C26.7134 -1.38419 38.2995 -1.34343 42.3522 6.60659Z" stroke="#FF0000" stroke-width="1.2"/>
</svg>
