<svg width="44" height="39" viewBox="0 0 44 39" fill="none" xmlns="http://www.w3.org/2000/svg">
<path d="M21.8795 38.1068C21.9327 38.0423 21.9902 37.976 22.0491 37.9095C22.2373 37.6975 22.4869 37.4343 22.7856 37.1325C23.3839 36.5283 24.1914 35.7571 25.1252 34.9092C26.9916 33.2147 29.377 31.2009 31.6214 29.5941C38.3818 24.7541 41.2122 21.6586 42.7199 17.6471C43.2879 16.1358 43.5479 13.9959 43.4927 11.8902C43.4374 9.77798 43.0671 7.78871 42.4413 6.56118L42.8715 6.34188L42.4413 6.56117C38.3548 -1.45527 26.6614 -1.50985 23.0247 6.33886L22.3469 7.80174L21.7593 9.06988L21.4091 7.71679L21.1343 6.65462C21.1343 6.65462 21.1343 6.65461 21.1343 6.65461C20.9404 5.90544 20.3496 4.94061 19.5173 4.00463C18.6923 3.07686 17.6754 2.22868 16.6906 1.69531C15.8217 1.22474 15.2895 0.938506 14.6218 0.758048C13.9541 0.577594 13.124 0.497151 11.6765 0.505043C10.2994 0.512562 9.4419 0.608285 8.73499 0.792886C8.02748 0.977642 7.44603 1.25708 6.60766 1.67685C4.3547 2.80505 2.58293 4.65213 1.3723 7.16406C1.01659 7.90218 0.804723 8.49218 0.677101 9.20337C0.547513 9.92552 0.501521 10.7901 0.500016 12.0848C0.496925 14.6891 0.941959 16.9296 1.90154 18.9903C2.86211 21.0531 4.35049 22.962 6.46948 24.8855C8.7876 26.9897 9.55415 27.5976 15.3106 31.8832C17.2643 33.3376 19.6588 35.3997 20.6377 36.4812M21.8795 38.1068L20.6377 36.4812M21.8795 38.1068C21.6454 37.7255 21.27 37.1797 20.6377 36.4812M21.8795 38.1068L20.267 36.8167L20.6377 36.4812" stroke="#FF0000"/>
</svg>
