<svg width="44" height="39" viewBox="0 0 44 39" fill="none" xmlns="http://www.w3.org/2000/svg">
<path d="M20.267 36.8167C19.32 35.7705 16.9553 33.731 15.0121 32.2843C9.25466 27.998 8.47105 27.3777 6.13341 25.2557C1.82389 21.3436 -0.00630867 17.4134 1.63343e-05 12.0842C0.00304133 9.48268 0.182891 8.48041 0.921885 6.94699C2.17575 4.34534 4.02258 2.41218 6.3838 1.22976C8.05621 0.392389 8.88101 0.0203 11.6738 0.00505042C14.5952 -0.0108769 15.2101 0.324952 16.9287 1.25565C19.0203 2.38845 21.1732 4.80954 21.6183 6.52935L21.8932 7.59153L22.571 6.12866C26.4015 -2.13816 38.6309 -2.01446 42.8868 6.33409C44.2369 8.9825 44.3851 14.6375 43.188 17.823C41.6262 21.9782 38.6931 25.1461 31.9125 30.0006C27.4656 33.1843 22.4329 38.0013 22.0826 38.6778C21.6759 39.4633 22.0631 38.801 20.267 36.8167Z" fill="#FF0000"/>
</svg>
