<svg width="13" height="10" viewBox="0 0 13 10" fill="none" xmlns="http://www.w3.org/2000/svg">
<path d="M6.5395 9.48152C6.09381 8.95822 5.34985 8.39852 4.62934 8.04442C3.90182 7.68682 3.21079 7.48822 2.42622 7.41142C2.27153 7.39642 2.14328 7.38242 2.14123 7.38042C2.13923 7.38042 2.14323 5.76532 2.15123 3.79582L2.16443 0.215017L2.30727 0.229017C3.18435 0.316017 4.16328 0.647417 4.90396 1.10932C5.54229 1.50732 6.20145 2.12192 6.6217 2.71082L6.72746 2.85902V6.26042C6.72746 8.13112 6.71946 9.66142 6.70986 9.66112C6.69986 9.66082 6.62332 9.57992 6.5395 9.48152ZM7.26606 6.25182V2.83622L7.4703 2.56332C7.73107 2.21492 8.25559 1.69002 8.60242 1.43052C9.52956 0.736617 10.5353 0.344517 11.6899 0.226517L11.8364 0.211517V3.79732V7.38322L11.6665 7.39922C10.0587 7.54882 8.66494 8.21212 7.57474 9.34632L7.26606 9.66752V6.25182ZM8.26216 9.43532C8.89317 8.84332 9.72851 8.37292 10.5676 8.13682C11.0067 8.01332 11.5777 7.92712 11.9568 7.92712C12.1555 7.92712 12.2658 7.88412 12.328 7.78202C12.3748 7.70502 12.3753 7.67192 12.3754 4.76632L12.3754 1.82812L12.4633 1.84412C12.5116 1.85412 12.6488 1.89212 12.768 1.93012L12.9848 1.99912V5.66602C12.9848 7.68282 12.9768 9.33292 12.9669 9.33292C12.9569 9.33292 12.812 9.30192 12.6447 9.26392C11.9832 9.11492 11.4385 9.06372 10.7231 9.08302C9.85541 9.10702 9.18104 9.22802 8.37938 9.50502L8.07469 9.61032L8.26216 9.43532ZM5.59028 9.49232C5.25736 9.37312 4.70754 9.23262 4.33637 9.17202C3.83169 9.09002 3.48351 9.06822 2.86497 9.08202C2.25039 9.09502 1.87865 9.13802 1.37153 9.25312C1.22973 9.28512 1.08471 9.31812 1.04926 9.32512L0.984863 9.33912L0.984973 5.66242L0.985093 1.98562L1.26038 1.90562C1.41178 1.86162 1.54885 1.82062 1.56496 1.81562C1.58826 1.80562 1.59426 2.40462 1.59426 4.75052C1.59426 7.95622 1.58726 7.77752 1.72404 7.86742C1.77164 7.89842 1.87054 7.91242 2.15297 7.92942C3.27543 7.99342 4.34049 8.37032 5.20999 9.01162C5.39749 9.14992 5.84748 9.52972 5.87327 9.57142C5.89127 9.60042 5.87927 9.59742 5.59035 9.49342L5.59028 9.49232Z" fill="black"/>
</svg>
