<svg width="9" height="9" viewBox="0 0 9 9" fill="none" xmlns="http://www.w3.org/2000/svg">
<g clip-path="url(#clip0_107_14)">
<path d="M3.66553 0.98757C1.73553 0.98757 0.165527 2.55757 0.165527 4.48757C0.165527 6.41757 1.73553 7.98757 3.66553 7.98757C4.25553 7.98757 4.83553 7.84757 5.32553 7.57757C5.36478 7.6248 5.40829 7.66832 5.45553 7.70757L6.45553 8.70757C6.54786 8.81147 6.66046 8.8954 6.78641 8.95421C6.91236 9.01302 7.049 9.04546 7.18794 9.04955C7.32688 9.05364 7.46519 9.02929 7.59438 8.97799C7.72357 8.9267 7.84091 8.84953 7.9392 8.75125C8.03749 8.65296 8.11465 8.53561 8.16595 8.40643C8.21725 8.27724 8.2416 8.13892 8.23751 7.99998C8.23342 7.86104 8.20098 7.7244 8.14217 7.59845C8.08336 7.47251 7.99943 7.35991 7.89553 7.26757L6.89553 6.26757C6.84682 6.21884 6.7932 6.17528 6.73553 6.13757C7.00553 5.64757 7.17553 5.07757 7.17553 4.47757C7.17553 2.54757 5.60553 0.97757 3.67553 0.97757L3.66553 0.98757ZM3.66553 1.98757C5.05553 1.98757 6.16553 3.09757 6.16553 4.48757C6.16553 5.14757 5.92553 5.75757 5.50553 6.20757C5.49553 6.21757 5.48553 6.22757 5.47553 6.23757C5.42829 6.27682 5.38478 6.32034 5.34553 6.36757C4.90553 6.76757 4.30553 6.99757 3.65553 6.99757C2.26553 6.99757 1.15553 5.88757 1.15553 4.49757C1.15553 3.10757 2.26553 1.99757 3.65553 1.99757L3.66553 1.98757Z" fill="black"/>
</g>
<defs>
<clipPath id="clip0_107_14">
<rect width="8" height="8" fill="white" transform="translate(0.165527 0.987564)"/>
</clipPath>
</defs>
</svg>
