<svg width="49" height="49" viewBox="0 0 49 49" fill="none" xmlns="http://www.w3.org/2000/svg">
<path d="M37.808 31.2273V38.1595C37.808 38.3039 37.7582 38.4226 37.6587 38.5154C37.5591 38.6083 37.4319 38.6547 37.277 38.6547H31.9677C31.8128 38.6547 31.6856 38.6083 31.586 38.5154C31.4865 38.4226 31.4367 38.3039 31.4367 38.1595V37.1692C31.4367 37.0248 31.4865 36.9062 31.586 36.8133C31.6856 36.7205 31.8128 36.6741 31.9677 36.6741H35.6842V31.2273C35.6842 31.0829 35.734 30.9643 35.8335 30.8714C35.9331 30.7786 36.0603 30.7322 36.2152 30.7322H37.277C37.4319 30.7322 37.5591 30.7786 37.6586 30.8714C37.7582 30.9643 37.808 31.0829 37.808 31.2273ZM44.7102 36.6741C44.7102 35.1473 44.3065 33.7392 43.499 32.4497C42.6915 31.1603 41.5965 30.139 40.2138 29.386C38.8311 28.6329 37.3213 28.2564 35.6842 28.2564C34.0472 28.2564 32.5373 28.6329 31.1547 29.386C29.772 30.139 28.6769 31.1603 27.8695 32.4497C27.062 33.7392 26.6583 35.1473 26.6583 36.6741C26.6583 38.2008 27.062 39.6089 27.8695 40.8984C28.6769 42.1878 29.772 43.2091 31.1547 43.9621C32.5373 44.7152 34.0472 45.0917 35.6842 45.0917C37.3213 45.0917 38.8311 44.7152 40.2138 43.9621C41.5965 43.2091 42.6915 42.1878 43.499 40.8984C44.3065 39.6089 44.7102 38.2008 44.7102 36.6741ZM48.4268 36.6741C48.4268 38.83 47.8571 40.8184 46.7178 42.6391C45.5785 44.4599 44.0327 45.9015 42.0804 46.964C40.1281 48.0265 37.996 48.5578 35.6842 48.5578C33.3724 48.5578 31.2404 48.0265 29.2881 46.964C27.3358 45.9015 25.79 44.4599 24.6506 42.6391C23.5113 40.8184 22.9417 38.83 22.9417 36.6741C22.9417 34.5181 23.5113 32.5297 24.6506 30.709C25.79 28.8882 27.3358 27.4466 29.2881 26.3841C31.2404 25.3216 33.3724 24.7903 35.6842 24.7903C37.996 24.7903 40.1281 25.3216 42.0804 26.3841C44.0327 27.4466 45.5785 28.8882 46.7178 30.709C47.8571 32.5297 48.4268 34.5181 48.4268 36.6741ZM1.7061 0.561872C1.67837 0.563763 1.65071 0.566343 1.62314 0.569609C0.894401 0.733403 0.393083 1.35678 0.428524 2.05508V46.6191C0.411109 47.4462 1.13454 48.1209 2.02134 48.1046H20.4383V45.1337H3.61416V3.41676H41.0454V22.4571H44.231V2.05508C44.2484 1.22804 43.525 0.553365 42.6382 0.569609H2.02134C1.91681 0.557123 1.81119 0.554528 1.7061 0.561872ZM39.8507 4.28328L31.6212 4.40707V4.77844L39.8507 4.65465V4.28328ZM39.8507 5.1498L31.6212 5.27359V5.64496L39.8507 5.52117V5.1498ZM39.8507 5.89254L31.6212 6.01633V6.38769L39.8507 6.26391V5.89254ZM39.8507 6.63527L31.6212 6.75906V7.13043L39.8507 7.00664V6.63527ZM39.8507 7.37801L31.6212 7.5018V7.87316L39.8507 7.74937V7.37801ZM14.4984 7.99695L6.26885 8.12074V8.49211L14.4984 8.36832V7.99695ZM26.71 7.99695L18.6132 8.12074V8.49211L26.71 8.36832V7.99695ZM14.4984 8.86348L6.26885 8.98727V9.35863L14.4984 9.23484V8.86348ZM26.71 8.86348L18.6132 8.98727V9.35863L26.71 9.23484V8.86348ZM14.4984 9.60621L6.26885 9.73V10.1014L14.4984 9.97758V9.60621ZM26.71 9.60621L18.6132 9.73V10.1014L26.71 9.97758V9.60621ZM14.4984 10.3489L6.26885 10.4727V10.8441L14.4984 10.7203V10.3489ZM26.71 10.3489L18.6132 10.4727V10.8441L26.71 10.7203V10.3489ZM14.4984 11.0917L6.26885 11.2155V11.5868L14.4984 11.463V11.0917ZM26.71 11.0917L18.6132 11.2155V11.5868L26.71 11.463V11.0917ZM5.60518 14.8054V15.3005V35.2305V35.6019H6.13612H20.4383V34.7354H14.3657C14.3639 34.7016 14.3691 34.637 14.3657 34.4878C14.3624 34.3452 14.3291 33.7965 14.2993 33.482C15.4466 33.4738 18.8114 33.471 20.4383 33.4588V33.0023C18.8048 33.0022 15.4247 33.0007 14.2744 33.0023C14.2587 32.7448 14.2356 32.7366 14.2329 32.3834C14.2324 32.3128 14.2334 31.9631 14.2329 31.8882C15.3875 31.8866 18.7954 31.8881 20.4383 31.8882V31.5169C18.7954 31.5167 15.3876 31.5152 14.2329 31.5169C14.2318 31.3215 14.2337 30.5028 14.2329 30.279C15.3686 30.2772 18.8181 30.2789 20.4383 30.279V29.9076C18.8181 29.9075 15.3687 29.9058 14.2329 29.9076C14.2323 29.6981 14.2333 29.0279 14.2329 28.7935C15.3686 28.7917 18.8181 28.7934 20.4383 28.7935V28.3835C18.8181 28.3958 15.3687 28.3986 14.2329 28.4067C14.2326 28.1362 14.233 27.4724 14.2329 27.1688C15.3686 27.1607 18.8181 27.1579 20.4383 27.1456V26.6891C18.8181 26.689 15.3687 26.6873 14.2329 26.6891C14.2329 26.3721 14.2327 25.804 14.2329 25.4512C15.378 25.4495 18.8067 25.4511 20.4383 25.4512V25.0798C18.8068 25.0797 15.3781 25.0781 14.2329 25.0798C14.2332 24.7114 14.2326 24.2341 14.2329 23.8265C15.3686 23.8184 18.8181 23.8156 20.4383 23.8033V23.3468C18.8181 23.3467 15.3687 23.345 14.2329 23.3468C14.2333 22.8871 14.2324 22.4943 14.2329 21.9851C15.9233 21.9826 20.5964 21.9841 23.3916 21.9851C23.3915 22.1616 23.3918 22.2866 23.3916 22.4571H23.7898C23.79 22.2866 23.7897 22.1616 23.7898 21.9851C25.7306 21.9859 27.468 21.984 30.0284 21.9851C30.0282 22.1609 30.0285 22.2873 30.0284 22.4571H30.4763C30.4747 22.2873 30.4779 22.1609 30.4763 21.9851C33.7294 21.9865 33.8877 21.985 38.2579 21.9851V22.4571H39.1871V15.3005V14.8053H38.6561H6.1361L5.60518 14.8054ZM6.53432 15.6719H13.8347C13.8347 16.2329 13.8349 16.1336 13.8347 16.6622C13.2135 16.6632 10.8774 16.6603 10.3836 16.6622C8.37063 16.6699 7.30413 16.6564 6.79979 16.6622C6.63168 16.6641 6.59627 16.6628 6.53432 16.6622V15.6719ZM14.2329 15.6719H23.3916C23.3916 16.2329 23.3918 16.1336 23.3916 16.6622C20.5965 16.6611 15.9232 16.6596 14.2329 16.6622C14.2331 16.1336 14.2329 16.2329 14.2329 15.6719ZM23.7898 15.6719H30.0284C30.0283 16.2322 30.0285 16.1346 30.0284 16.6622C27.4586 16.6611 25.7309 16.663 23.7898 16.6622C23.79 16.1336 23.7898 16.2329 23.7898 15.6719ZM30.4266 15.6719H38.2579V16.6622C33.8238 16.6621 33.7126 16.6636 30.4349 16.6622C30.434 16.1346 30.4267 16.2322 30.4266 15.6719ZM6.53432 17.0336C6.59653 17.0342 6.63245 17.0355 6.79979 17.0336C7.30181 17.0278 8.37121 17.0412 10.3836 17.0336C10.8772 17.0317 13.2136 17.0346 13.8347 17.0336C13.8345 17.7358 13.8351 17.7348 13.8347 18.3798C13.1842 18.3843 10.7636 18.3933 10.2509 18.3952C8.2379 18.4029 7.17139 18.3895 6.66706 18.3952C6.583 18.3962 6.58607 18.3954 6.53432 18.3952V17.0336ZM14.2329 17.0336C15.923 17.031 20.5964 17.0325 23.3916 17.0336C23.3914 17.7156 23.392 17.7131 23.3916 18.3411C20.5784 18.3601 15.9372 18.3675 14.2329 18.3798C14.2333 17.7348 14.2327 17.7358 14.2329 17.0336ZM23.7898 17.0336C25.731 17.0343 27.4585 17.0324 30.0284 17.0336C30.0282 17.6981 30.0287 17.6975 30.0284 18.3101C27.4442 18.3205 25.7433 18.3204 23.7898 18.3333C23.7902 17.7087 23.7896 17.7116 23.7898 17.0336ZM30.4432 17.0336C33.7187 17.0349 33.8286 17.0335 38.2579 17.0336V18.2714C33.8121 18.2717 33.7427 18.2976 30.4515 18.3101C30.449 17.6974 30.4446 17.6981 30.4432 17.0336ZM6.53432 18.7666C6.58658 18.7668 6.58339 18.7676 6.66706 18.7666C7.16908 18.7609 8.23848 18.7743 10.2509 18.7666C10.7635 18.7646 13.1843 18.7677 13.8347 18.7666C13.8344 19.3449 13.8352 19.4721 13.8347 20.0045C13.1842 20.0055 10.7612 20.0025 10.2509 20.0045C8.2379 20.0122 7.30413 19.9987 6.79979 20.0045C6.67371 20.0059 6.62739 20.0051 6.53432 20.0045V18.7666ZM14.2329 18.7666C15.937 18.7641 20.5783 18.7655 23.3916 18.7666C23.3913 19.3449 23.3921 19.4721 23.3916 20.0045C20.5786 20.0034 15.9376 20.002 14.2329 20.0045C14.2334 19.472 14.2326 19.345 14.2329 18.7666ZM23.7898 18.7666C25.7434 18.7674 27.4442 18.7655 30.0284 18.7666C30.028 19.3432 30.0288 19.4739 30.0284 20.0045C27.4541 20.0034 25.7429 20.0053 23.7898 20.0045C23.7903 19.472 23.7895 19.345 23.7898 18.7666ZM30.4515 18.7666C33.7427 18.768 33.8122 18.7666 38.2579 18.7666V20.0045C33.8578 20.0044 33.7352 20.0059 30.4598 20.0045C30.4564 19.4738 30.4541 19.3433 30.4515 18.7666ZM6.53432 20.3759C6.62811 20.3764 6.67429 20.3773 6.79979 20.3759C7.30181 20.3701 8.23848 20.3835 10.2509 20.3759C10.7611 20.3739 13.1843 20.3769 13.8347 20.3759C13.8343 20.8949 13.8352 21.1382 13.8347 21.6137C13.2136 21.6148 10.8751 21.6119 10.3836 21.6137C8.37063 21.6214 7.43686 21.608 6.93253 21.6137C6.68036 21.6166 6.59954 21.612 6.53432 21.6137V20.3759ZM14.2329 20.3759C15.9375 20.3734 20.5785 20.3748 23.3916 20.3759C23.3912 20.8949 23.3921 21.1382 23.3916 21.6137C20.5965 21.6127 15.9235 21.6112 14.2329 21.6137C14.2334 21.1381 14.2325 20.8949 14.2329 20.3759ZM23.7898 20.3759C25.7429 20.3766 27.454 20.3747 30.0284 20.3759C30.0279 20.8931 30.0288 21.14 30.0284 21.6137C27.4681 21.6126 25.7305 21.6145 23.7898 21.6137C23.7903 21.1381 23.7894 20.8949 23.7898 20.3759ZM30.4681 20.3759C33.7412 20.3772 33.8626 20.3758 38.2579 20.3759V21.6137C33.8876 21.6136 33.7293 21.6151 30.4764 21.6137C30.4723 21.1399 30.4716 20.8931 30.4681 20.3759ZM10.3836 21.9851C10.8749 21.9832 13.2137 21.9862 13.8347 21.9851C13.8343 22.4943 13.8352 22.8871 13.8347 23.3468C13.2424 23.3478 10.9911 23.345 10.5164 23.3468C8.50337 23.3545 7.43686 23.341 6.93253 23.3468C6.68036 23.3497 6.59954 23.4688 6.53432 23.4706V22.1089C6.59491 22.1073 6.68152 22.1118 6.93253 22.1089C7.43455 22.1032 8.37121 21.9928 10.3836 21.9851ZM13.8347 23.8265C13.8344 24.2341 13.835 24.7114 13.8347 25.0798C13.2135 25.0809 10.8774 25.078 10.3836 25.0798C8.37063 25.0875 7.43686 25.0741 6.93253 25.0798C6.7434 25.082 6.63372 25.0803 6.53432 25.0798V23.842C6.59491 23.8403 6.68152 23.8448 6.93253 23.842C7.43455 23.8362 8.50395 23.8496 10.5164 23.842C10.991 23.8401 13.2425 23.8305 13.8347 23.8265ZM6.93253 25.4512C7.43455 25.4455 8.37121 25.4589 10.3836 25.4512C10.8772 25.4493 13.2136 25.4523 13.8347 25.4512C13.8345 25.804 13.8347 26.3721 13.8347 26.6891C13.2424 26.6901 10.9911 26.6873 10.5164 26.6891C8.50337 26.6968 7.43686 26.8071 6.93253 26.8129C6.68036 26.8158 6.59954 26.8111 6.53432 26.8129V25.5441C6.63334 25.5097 6.74427 25.4534 6.93253 25.4512ZM13.8347 27.1688C13.8348 27.4724 13.8344 28.1362 13.8347 28.4067C13.2424 28.4108 10.9911 28.4203 10.5164 28.4222C8.50337 28.4298 7.43686 28.4164 6.93253 28.4222C6.68036 28.4251 6.59954 28.4204 6.53432 28.4222V27.1843C6.59491 27.1827 6.68152 27.1871 6.93253 27.1843C7.43455 27.1785 8.50395 27.192 10.5164 27.1843C10.991 27.1824 13.2425 27.1729 13.8347 27.1688ZM6.53432 28.7935C6.59491 28.7919 6.68152 28.7964 6.93253 28.7935C7.43455 28.7878 8.50395 28.8012 10.5164 28.7935C10.991 28.7917 13.2425 28.7945 13.8347 28.7935C13.8351 29.028 13.8342 29.6981 13.8347 29.9076C13.2424 29.9086 10.9911 29.9058 10.5164 29.9076C8.50337 29.9153 7.43686 29.9018 6.93253 29.9076C6.68036 29.9105 6.59954 29.9059 6.53432 29.9076V28.7935ZM6.53432 30.279C6.59491 30.2774 6.68152 30.2819 6.93253 30.279C7.43455 30.2732 8.50395 30.2867 10.5164 30.279C10.991 30.2772 13.2425 30.28 13.8347 30.279C13.8355 30.5029 13.8337 31.3214 13.8347 31.5169C13.1842 31.5179 10.7636 31.5149 10.2509 31.5169C8.2379 31.5246 7.17139 31.5111 6.66706 31.5169C6.583 31.5178 6.58607 31.5171 6.53432 31.5169V30.279ZM6.53432 31.8882C6.58658 31.8884 6.58339 31.8892 6.66706 31.8882C7.16908 31.8825 8.23848 31.8959 10.2509 31.8882C10.7635 31.8863 13.1843 31.8893 13.8347 31.8882C13.8352 31.9632 13.8342 32.3127 13.8347 32.3834C13.8374 32.7368 13.8352 32.7452 13.8347 33.0023C13.1842 33.0034 10.7612 33.0004 10.2509 33.0023C8.2379 33.01 7.30413 33.1204 6.79979 33.1261C6.67371 33.1276 6.62739 33.1267 6.53432 33.1261V31.8882ZM13.8347 33.482C13.8328 33.7958 13.8314 34.3434 13.8347 34.4878C13.8382 34.6389 13.9653 34.6941 13.9675 34.7354H6.53432V33.4975C6.62811 33.4981 6.67429 33.4989 6.79979 33.4975C7.30181 33.4918 8.23848 33.5052 10.2509 33.4975C10.7611 33.4956 13.1843 33.4866 13.8347 33.482ZM19.1441 36.3446L5.87065 36.4684V36.8398L19.1441 36.716V36.3446ZM5.87065 37.2112V37.7063L19.1441 37.5825V37.2112H5.87065ZM19.1441 37.9539L5.87065 38.0777V38.4491L19.1441 38.3253V37.9539ZM19.1441 38.6966L5.87065 38.8204V39.1918L19.1441 39.068V38.6966ZM19.1441 39.4394L5.87065 39.5632V39.9345L19.1441 39.8107V39.4394ZM19.1441 40.1821L5.87065 40.3059V40.6773L19.1441 40.5535V40.1821ZM19.1441 41.0486L5.87065 41.1724V41.5438L19.1441 41.42V41.0486ZM19.1441 41.7914L5.87065 41.9152V42.2865L19.1441 42.1627V41.7914ZM19.1441 42.5341L5.87065 42.6579V43.0293L19.1441 42.9055V42.5341ZM19.1441 43.2768L5.87065 43.4006V43.772L19.1441 43.6482V43.2768Z" fill="white"/>
</svg>
