<svg width="48" height="48" viewBox="0 0 48 48" fill="none" xmlns="http://www.w3.org/2000/svg">
<path d="M47.9748 46.7875C47.0748 42.8125 41.9373 40.875 40.1623 40.25C38.2123 39.5625 35.4373 39.4 33.6498 39C32.6248 38.775 31.1373 38.2125 30.6373 37.6125C30.1373 37.0125 30.4373 31.45 30.4373 31.45C30.4373 31.45 31.3623 30.0125 31.8623 28.7375C32.3623 27.475 32.9123 24 32.9123 24C32.9123 24 33.9373 24 34.2998 22.2C34.6873 20.2375 35.2998 19.475 35.2248 18.0125C35.1498 16.575 34.3623 16.6125 34.3623 16.6125C34.3623 16.6125 35.1248 14.525 35.2123 10.2C35.3248 5.0625 31.2998 0 24.0123 0C16.6248 0 12.6873 5.0625 12.7998 10.2C12.8998 14.525 13.6373 16.6125 13.6373 16.6125C13.6373 16.6125 12.8498 16.575 12.7748 18.0125C12.6998 19.475 13.3123 20.2375 13.6998 22.2C14.0498 24 15.0873 24 15.0873 24C15.0873 24 15.6373 27.475 16.1373 28.7375C16.6373 30.0125 17.5623 31.45 17.5623 31.45C17.5623 31.45 17.8623 37.0125 17.3623 37.6125C16.8623 38.2125 15.3748 38.775 14.3498 39C12.5623 39.4 9.78729 39.5625 7.83729 40.25C6.06229 40.875 0.924786 42.8125 0.0247863 46.7875C-0.112714 47.4125 0.362286 48 1.01229 48H46.9998C47.6373 48 48.1123 47.4125 47.9748 46.7875Z" fill="white"/>
</svg>
